<?xml version="1.0" encoding="utf-8"?>
<!-- Generator: Adobe Illustrator 27.9.3, SVG Export Plug-In . SVG Version: 9.03 Build 53313)  -->
<svg version="1.1" id="Legible_Logo" xmlns="http://www.w3.org/2000/svg" xmlns:xlink="http://www.w3.org/1999/xlink" x="0px"
	 y="0px" viewBox="0 0 266.78 40.196" style="enable-background:new 0 0 266.78 40.196;" xml:space="preserve">
<style type="text/css">
	.st0{fill:#FFFFFF;}
	.st1{fill-rule:evenodd;clip-rule:evenodd;fill:#FFFFFF;}
	.st2{opacity:0.5;}
</style>
<g id="Workmark">
	<path id="e_00000159458214173490490150000000399677603521971087_" class="st0" d="M140.284,26.65l-3.717-0.774
		c-0.774,1.162-2.014,1.781-3.64,1.781c-0.929,0-1.781-0.31-2.478-0.929c-0.697-0.62-1.162-1.394-1.394-2.401h11.617v-1.394
		c0-1.549-0.387-2.943-1.084-4.182c-0.697-1.162-1.626-2.091-2.788-2.711s-2.478-0.929-3.872-0.929c-1.471,0-2.788,0.31-4.027,1.007
		s-2.168,1.626-2.865,2.788s-1.084,2.556-1.084,4.105s0.387,2.943,1.084,4.105s1.704,2.091,2.865,2.788
		c1.239,0.62,2.556,1.007,4.027,1.007c1.781,0,3.33-0.387,4.569-1.162C138.735,28.974,139.664,27.967,140.284,26.65z
		 M129.287,20.997c0.232-0.852,0.774-1.549,1.471-2.014c0.697-0.465,1.471-0.697,2.323-0.697s1.626,0.232,2.246,0.697
		s1.084,1.162,1.394,2.091l0.155,0.542h-7.667L129.287,20.997z"/>
	<path id="l_00000169552951145575716440000018129439550003520701_" class="st0" d="M125.105,26.96
		c-0.387,0.155-0.774,0.232-1.317,0.232c-0.542,0-1.007-0.155-1.394-0.465s-0.542-0.774-0.542-1.317V7.134h-4.259v18.665
		c0,1.549,0.465,2.711,1.394,3.64c0.929,0.929,2.091,1.394,3.64,1.394c0.774,0,1.394-0.077,1.781-0.232s0.62-0.155,1.317-0.542
		L125.105,26.96z"/>
	<path id="b" class="st0" d="M115.502,27.038c0.697-1.162,1.007-2.556,1.007-4.105s-0.31-2.866-1.007-4.105
		c-0.62-1.162-1.549-2.091-2.711-2.788c-1.084-0.697-2.323-1.007-3.64-1.007c-1.859,0-3.485,0.542-4.647,1.626l-0.697,0.62V7.134
		h-4.182V30.29c0,0,2.014,0.155,2.943-0.387s1.317-1.394,1.317-1.394l0.697,0.62c1.239,1.084,2.788,1.626,4.647,1.626
		c1.317,0,2.556-0.31,3.64-1.007C113.953,29.129,114.882,28.199,115.502,27.038z M111.165,26.108
		c-0.774,0.852-1.859,1.239-3.098,1.239c-0.774,0-1.471-0.155-2.168-0.542c-0.62-0.387-1.162-0.929-1.549-1.549
		c-0.387-0.697-0.62-1.472-0.62-2.323c0-0.852,0.232-1.626,0.62-2.323c0.387-0.697,0.929-1.239,1.549-1.626s1.394-0.542,2.168-0.542
		c1.239,0,2.246,0.465,3.098,1.239c0.774,0.852,1.162,1.936,1.162,3.175C112.404,24.249,112.017,25.334,111.165,26.108z"/>
	<g id="i">
		<path class="st0" d="M97.07,15.498h-4.259V30.29h4.182V15.498H97.07z"/>
		<path class="st0" d="M93.198,12.168c0.465,0.465,1.084,0.697,1.781,0.697c0.774,0,1.317-0.232,1.781-0.697
			s0.697-1.007,0.697-1.704S97.225,9.225,96.76,8.76s-1.084-0.697-1.781-0.697s-1.317,0.232-1.781,0.697
			c-0.465,0.465-0.697,1.007-0.697,1.704C92.501,11.161,92.733,11.703,93.198,12.168z"/>
	</g>
	<path id="g" class="st0" d="M87.08,29.516c-1.162-0.077-5.266-0.077-6.505-0.155c-1.162-0.077-1.859-1.239-1.471-2.091
		c1.084,0.465,2.246,0.697,3.562,0.697c1.394,0,2.633-0.31,3.795-0.852c1.162-0.542,2.091-1.317,2.711-2.323
		c0.697-1.007,1.007-2.091,1.007-3.33c0-0.852-0.155-1.626-0.465-2.323c0.232-0.077,0.387-0.155,0.62-0.232
		c1.471-0.697,1.084-3.408,1.084-3.408s-2.478,0.232-5.034,0.31c-1.162-0.542-2.401-0.774-3.795-0.774s-2.711,0.31-3.872,0.852
		c-1.162,0.542-2.091,1.317-2.788,2.323c-0.697,1.007-1.007,2.091-1.007,3.33s0.31,2.401,1.007,3.33
		c0.155,0.31,0.387,0.542,0.62,0.774c-0.852,0.697-1.239,1.936-1.162,2.943c0.077,0.774,0.387,1.781,1.239,2.478
		c0.774,0.697,2.323,1.317,4.105,1.394c1.781,0,3.717,0,4.259,0c1.084,0.077,1.549,0.31,1.859,0.62
		c0.155,0.155,0.232,0.387,0.232,0.62s-0.077,0.465-0.232,0.62s-0.387,0.31-0.62,0.465c-0.232,0.155-0.62,0.232-0.929,0.31
		c-0.387,0.077-1.007,0.155-1.626,0.232c-0.62,0-1.859,0.077-2.943,0.077c-1.162,0-2.091-0.077-2.711-0.465
		c-0.465-0.31-0.465-0.929-0.232-1.549c-1.394-0.697-2.401-1.394-2.401-1.394c-0.542,0.62-1.007,1.394-1.007,2.246
		c0,0.542,0.155,1.472,0.31,1.936c0.232,0.465,0.465,0.852,0.852,1.162c0.387,0.31,0.774,0.62,1.239,0.774s1.007,0.232,1.471,0.232
		h7.125c0.852,0,1.626-0.155,2.323-0.387c0.697-0.232,1.317-0.62,1.859-1.007c0.542-0.465,0.929-1.084,1.162-1.704
		c0.31-0.852,0.465-2.556-0.155-3.563C90.1,30.523,89.171,29.671,87.08,29.516z M79.181,19.525c0.387-0.542,0.852-1.007,1.471-1.317
		c1.162-0.62,2.633-0.62,3.872,0c0.62,0.31,1.084,0.774,1.471,1.317c0.387,0.542,0.542,1.239,0.542,1.936s-0.155,1.394-0.542,1.936
		c-0.387,0.542-0.852,1.007-1.471,1.317c-0.62,0.31-1.239,0.465-1.936,0.465s-1.394-0.155-1.936-0.465
		c-0.62-0.31-1.084-0.774-1.471-1.317c-0.387-0.542-0.542-1.239-0.542-1.936C78.639,20.764,78.793,20.067,79.181,19.525z"/>
	<path id="e" class="st0" d="M74.147,24.249l-3.717,0.387c-0.387,1.317-1.317,2.246-2.865,2.788
		c-0.929,0.31-1.781,0.232-2.633-0.155c-0.852-0.387-1.549-1.007-2.091-1.936l11.074-3.485l-0.387-1.317
		c-0.542-1.472-1.317-2.711-2.323-3.64s-2.246-1.472-3.485-1.781c-1.317-0.232-2.633-0.155-4.027,0.31
		c-1.394,0.465-2.556,1.162-3.562,2.169c-0.929,1.007-1.549,2.169-1.859,3.563c-0.31,1.317-0.232,2.788,0.232,4.182
		c0.465,1.472,1.239,2.633,2.323,3.563c1.007,0.929,2.246,1.472,3.64,1.781c1.394,0.232,2.788,0.155,4.104-0.31
		c1.704-0.542,3.02-1.394,4.027-2.478C73.45,26.883,73.992,25.644,74.147,24.249z M61.911,22.236c0-0.929,0.232-1.704,0.774-2.401
		s1.162-1.162,1.936-1.394c0.774-0.232,1.626-0.232,2.401,0c0.774,0.232,1.394,0.774,1.936,1.549l0.31,0.465l-7.357,2.323
		C61.911,22.778,61.911,22.236,61.911,22.236z"/>
	<path id="l" class="st0" d="M57.884,26.883c-0.31,0.155-0.929,0.31-1.471,0.31s-1.007-0.155-1.394-0.465s-0.542-0.774-0.542-1.317
		V7.134h-4.259v18.665c0,1.549,0.465,2.711,1.394,3.64c0.929,0.929,2.091,1.394,3.64,1.394c0.774,0,1.394-0.077,1.781-0.232
		c0.387-0.155,1.317-0.465,2.401-1.084C58.968,28.974,58.193,27.657,57.884,26.883z"/>
</g>
<path id="Monogram" class="st1" d="M20.098,0C8.998,0,0,8.998,0,20.098s8.998,20.098,20.098,20.098s20.098-8.998,20.098-20.098
	S31.198,0,20.098,0z M15.306,30.336c-0.849-3.608-3.641-6.942-7.361-8.433c0.809-1.804,4.874-9.546,6.737-14.893
	c2.312,4.766,7.236,12.448,7.236,12.448s-4.589,7.593-6.367,11.027L15.306,30.336z M25.949,28.717
	c-4.155,1.441-7.815,2.326-9.014,2.599l-0.26-0.154l7.086-11.017c0,0,6.467-2.032,9.424-2.947
	C30.793,20.477,27.796,25.263,25.949,28.717z"/>
<g id="Layer_2">
	<g class="st2">
		<path class="st0" d="M154.138,30.674v-2.415c-0.774,1.591-2.542,2.769-5.022,2.769c-4.31,0-7.38-3.534-7.38-8.011
			c0-4.475,3.039-8.009,7.349-8.009c2.45,0,4.187,1.178,4.931,2.769v-8.6h4.247v21.498H154.138z M149.983,18.365
			c-2.48,0-4.031,2.238-4.031,4.652c0,2.415,1.551,4.653,4.031,4.653c2.418,0,4.031-2.032,4.031-4.653
			C154.015,20.396,152.401,18.365,149.983,18.365z"/>
		<path class="st0" d="M166.228,15.007c5.116,0,7.782,3.475,7.782,7.921V23.9h-11.72c0.154,2.297,1.612,4.034,4.093,4.034
			c1.984,0,3.038-0.883,3.565-2.031h3.845c-0.744,3.033-3.628,5.124-7.38,5.124c-5.178,0-8.186-3.505-8.186-8.011
			C158.228,18.542,161.515,15.007,166.228,15.007z M169.948,21.103c-0.279-1.914-1.612-3.239-3.721-3.239
			c-2.077,0-3.441,1.384-3.813,3.239H169.948z"/>
		<path class="st0" d="M172.022,15.361h4.279l3.845,10.778l3.845-10.778h4.248l-5.922,15.313h-4.342L172.022,15.361z"/>
		<path class="st0" d="M194.22,15.007c5.116,0,7.782,3.475,7.782,7.921V23.9h-11.72c0.154,2.297,1.612,4.034,4.093,4.034
			c1.984,0,3.038-0.883,3.565-2.031h3.845c-0.744,3.033-3.628,5.124-7.38,5.124c-5.178,0-8.186-3.505-8.186-8.011
			C186.22,18.542,189.507,15.007,194.22,15.007z M197.94,21.103c-0.279-1.914-1.612-3.239-3.721-3.239
			c-2.077,0-3.441,1.384-3.813,3.239H197.94z"/>
		<path class="st0" d="M202.185,9.176h4.248v21.498h-4.248V9.176z"/>
		<path class="st0" d="M206.556,23.017c0-4.446,3.411-8.009,8.279-8.009c4.867,0,8.278,3.563,8.278,8.009
			c0,4.447-3.411,8.011-8.278,8.011C209.967,31.027,206.556,27.464,206.556,23.017z M218.928,23.017
			c0-2.326-1.488-4.652-4.093-4.652s-4.093,2.326-4.093,4.652c0,2.327,1.488,4.683,4.093,4.683S218.928,25.344,218.928,23.017z"/>
		<path class="st0" d="M227.204,15.361v2.415c0.806-1.591,2.542-2.769,5.022-2.769c4.31,0,7.38,3.534,7.38,8.009
			c0,4.477-3.039,8.011-7.349,8.011c-2.45,0-4.155-1.178-4.931-2.769v7.834h-4.247V15.361H227.204z M231.358,27.67
			c2.48,0,4.031-2.238,4.031-4.653c0-2.414-1.551-4.652-4.031-4.652c-2.418,0-4.031,2.031-4.031,4.652
			C227.327,25.638,228.94,27.67,231.358,27.67z"/>
		<path class="st0" d="M246.609,15.007c5.116,0,7.782,3.475,7.782,7.921V23.9h-11.72c0.155,2.297,1.612,4.034,4.093,4.034
			c1.984,0,3.038-0.883,3.565-2.031h3.845c-0.744,3.033-3.628,5.124-7.379,5.124c-5.179,0-8.186-3.505-8.186-8.011
			C238.61,18.542,241.896,15.007,246.609,15.007z M250.33,21.103c-0.279-1.914-1.612-3.239-3.721-3.239
			c-2.077,0-3.441,1.384-3.813,3.239H250.33z"/>
		<path class="st0" d="M254.421,15.361h4.062v3.445c0.465-2.149,1.923-3.622,4.465-3.622c0.465,0,0.931,0.029,1.24,0.117v3.829
			c-0.31-0.029-0.62-0.029-1.023-0.029c-2.853,0-4.495,1.679-4.495,4.77v6.803h-4.248V15.361z"/>
	</g>
</g>
</svg>
