<?xml version="1.0" encoding="utf-8"?>
<!-- Generator: Adobe Illustrator 27.9.3, SVG Export Plug-In . SVG Version: 9.03 Build 53313)  -->
<svg version="1.1" id="Layer_1" xmlns="http://www.w3.org/2000/svg" xmlns:xlink="http://www.w3.org/1999/xlink" x="0px" y="0px"
	 viewBox="0 0 114 114" style="enable-background:new 0 0 114 114;" xml:space="preserve">
<style type="text/css">
	.st0{fill-rule:evenodd;clip-rule:evenodd;fill:#71FFBB;}
</style>
<path class="st0" d="M57,1.115c-30.928,0-56,25.072-56,56c0,30.928,25.072,56,56,56s56-25.072,56-56
	C113,26.188,87.928,1.115,57,1.115z M43.648,85.644c-2.365-10.052-10.144-19.343-20.51-23.497
	c2.254-5.026,13.581-26.598,18.771-41.497c6.443,13.278,20.162,34.684,20.162,34.684S49.283,76.491,44.33,86.059L43.648,85.644z
	 M73.302,81.13c-11.577,4.015-21.777,6.48-25.116,7.241l-0.724-0.429l19.745-30.697c0,0,18.02-5.663,26.257-8.211
	C86.8,58.173,78.451,71.507,73.302,81.13z"/>
</svg>
